<mxfile host="app.diagrams.net" modified="2021-05-16T17:07:32.159Z" agent="5.0 (Windows NT 10.0; Win64; x64) AppleWebKit/537.36 (KHTML, like Gecko) Chrome/90.0.4430.212 Safari/537.36" etag="XkayCkGAWGom9-bcsaDS" version="14.6.11" type="github" pages="2">
  <diagram id="K3if5_XP6Gxu8-bFcKUU" name="Page-1">
    <mxGraphModel dx="583" dy="1818" grid="1" gridSize="10" guides="1" tooltips="1" connect="1" arrows="1" fold="1" page="1" pageScale="1" pageWidth="827" pageHeight="1169" math="0" shadow="0">
      <root>
        <mxCell id="0" />
        <mxCell id="1" parent="0" />
        <mxCell id="Jn_xSeAASxIxrFzxwbmW-7" style="edgeStyle=orthogonalEdgeStyle;rounded=0;orthogonalLoop=1;jettySize=auto;html=1;exitX=0.5;exitY=1;exitDx=0;exitDy=0;" parent="1" source="Jn_xSeAASxIxrFzxwbmW-2" target="Jn_xSeAASxIxrFzxwbmW-5" edge="1">
          <mxGeometry relative="1" as="geometry" />
        </mxCell>
        <mxCell id="Jn_xSeAASxIxrFzxwbmW-2" value="首页" style="rounded=0;whiteSpace=wrap;html=1;" parent="1" vertex="1">
          <mxGeometry x="360" y="-140" width="70" height="40" as="geometry" />
        </mxCell>
        <mxCell id="Jn_xSeAASxIxrFzxwbmW-44" style="edgeStyle=orthogonalEdgeStyle;rounded=0;orthogonalLoop=1;jettySize=auto;html=1;entryX=0.5;entryY=1;entryDx=0;entryDy=0;" parent="1" source="Jn_xSeAASxIxrFzxwbmW-4" target="Jn_xSeAASxIxrFzxwbmW-43" edge="1">
          <mxGeometry relative="1" as="geometry" />
        </mxCell>
        <mxCell id="Jn_xSeAASxIxrFzxwbmW-4" value="地址信息" style="rounded=0;whiteSpace=wrap;html=1;" parent="1" vertex="1">
          <mxGeometry x="150" y="10" width="120" height="60" as="geometry" />
        </mxCell>
        <mxCell id="Jn_xSeAASxIxrFzxwbmW-6" style="edgeStyle=orthogonalEdgeStyle;rounded=0;orthogonalLoop=1;jettySize=auto;html=1;exitX=0;exitY=0.5;exitDx=0;exitDy=0;entryX=1;entryY=0.5;entryDx=0;entryDy=0;" parent="1" source="Jn_xSeAASxIxrFzxwbmW-5" target="Jn_xSeAASxIxrFzxwbmW-4" edge="1">
          <mxGeometry relative="1" as="geometry" />
        </mxCell>
        <mxCell id="Jn_xSeAASxIxrFzxwbmW-10" style="edgeStyle=orthogonalEdgeStyle;rounded=0;orthogonalLoop=1;jettySize=auto;html=1;exitX=1;exitY=0.5;exitDx=0;exitDy=0;" parent="1" source="Jn_xSeAASxIxrFzxwbmW-5" target="Jn_xSeAASxIxrFzxwbmW-12" edge="1">
          <mxGeometry relative="1" as="geometry">
            <mxPoint x="675" y="50" as="targetPoint" />
          </mxGeometry>
        </mxCell>
        <mxCell id="Jn_xSeAASxIxrFzxwbmW-14" style="edgeStyle=orthogonalEdgeStyle;rounded=0;orthogonalLoop=1;jettySize=auto;html=1;exitX=0.5;exitY=1;exitDx=0;exitDy=0;entryX=0.5;entryY=0;entryDx=0;entryDy=0;" parent="1" source="Jn_xSeAASxIxrFzxwbmW-5" target="Jn_xSeAASxIxrFzxwbmW-13" edge="1">
          <mxGeometry relative="1" as="geometry" />
        </mxCell>
        <mxCell id="Jn_xSeAASxIxrFzxwbmW-16" style="edgeStyle=orthogonalEdgeStyle;rounded=0;orthogonalLoop=1;jettySize=auto;html=1;exitX=0.5;exitY=1;exitDx=0;exitDy=0;" parent="1" source="Jn_xSeAASxIxrFzxwbmW-5" target="Jn_xSeAASxIxrFzxwbmW-15" edge="1">
          <mxGeometry relative="1" as="geometry" />
        </mxCell>
        <mxCell id="Jn_xSeAASxIxrFzxwbmW-18" style="edgeStyle=orthogonalEdgeStyle;rounded=0;orthogonalLoop=1;jettySize=auto;html=1;exitX=0.5;exitY=1;exitDx=0;exitDy=0;" parent="1" source="Jn_xSeAASxIxrFzxwbmW-5" target="Jn_xSeAASxIxrFzxwbmW-17" edge="1">
          <mxGeometry relative="1" as="geometry" />
        </mxCell>
        <mxCell id="Jn_xSeAASxIxrFzxwbmW-5" value="IP定位" style="rhombus;whiteSpace=wrap;html=1;" parent="1" vertex="1">
          <mxGeometry x="355" width="80" height="80" as="geometry" />
        </mxCell>
        <mxCell id="Jn_xSeAASxIxrFzxwbmW-47" style="edgeStyle=orthogonalEdgeStyle;rounded=0;orthogonalLoop=1;jettySize=auto;html=1;exitX=1;exitY=0.5;exitDx=0;exitDy=0;entryX=1;entryY=0.5;entryDx=0;entryDy=0;" parent="1" source="Jn_xSeAASxIxrFzxwbmW-12" target="Jn_xSeAASxIxrFzxwbmW-2" edge="1">
          <mxGeometry relative="1" as="geometry" />
        </mxCell>
        <mxCell id="Jn_xSeAASxIxrFzxwbmW-12" value="&lt;span style=&quot;color: rgb(51 , 51 , 51)&quot;&gt;将北京天气信息展示&lt;/span&gt;" style="rounded=0;whiteSpace=wrap;html=1;" parent="1" vertex="1">
          <mxGeometry x="560" y="10" width="120" height="60" as="geometry" />
        </mxCell>
        <mxCell id="Jn_xSeAASxIxrFzxwbmW-24" style="edgeStyle=orthogonalEdgeStyle;rounded=0;orthogonalLoop=1;jettySize=auto;html=1;exitX=0.5;exitY=1;exitDx=0;exitDy=0;entryX=0.5;entryY=0;entryDx=0;entryDy=0;" parent="1" source="Jn_xSeAASxIxrFzxwbmW-13" target="Jn_xSeAASxIxrFzxwbmW-21" edge="1">
          <mxGeometry relative="1" as="geometry" />
        </mxCell>
        <mxCell id="Jn_xSeAASxIxrFzxwbmW-25" style="edgeStyle=orthogonalEdgeStyle;rounded=0;orthogonalLoop=1;jettySize=auto;html=1;exitX=0.5;exitY=1;exitDx=0;exitDy=0;entryX=0.5;entryY=0;entryDx=0;entryDy=0;" parent="1" source="Jn_xSeAASxIxrFzxwbmW-13" target="Jn_xSeAASxIxrFzxwbmW-19" edge="1">
          <mxGeometry relative="1" as="geometry" />
        </mxCell>
        <mxCell id="Jn_xSeAASxIxrFzxwbmW-27" style="edgeStyle=orthogonalEdgeStyle;rounded=0;orthogonalLoop=1;jettySize=auto;html=1;exitX=0.5;exitY=1;exitDx=0;exitDy=0;" parent="1" source="Jn_xSeAASxIxrFzxwbmW-13" target="Jn_xSeAASxIxrFzxwbmW-26" edge="1">
          <mxGeometry relative="1" as="geometry" />
        </mxCell>
        <mxCell id="Jn_xSeAASxIxrFzxwbmW-13" value="AQI天气可视化" style="rounded=0;whiteSpace=wrap;html=1;" parent="1" vertex="1">
          <mxGeometry x="110" y="190" width="120" height="60" as="geometry" />
        </mxCell>
        <mxCell id="Jn_xSeAASxIxrFzxwbmW-31" style="edgeStyle=orthogonalEdgeStyle;rounded=0;orthogonalLoop=1;jettySize=auto;html=1;entryX=0.5;entryY=0;entryDx=0;entryDy=0;" parent="1" source="Jn_xSeAASxIxrFzxwbmW-15" target="Jn_xSeAASxIxrFzxwbmW-29" edge="1">
          <mxGeometry relative="1" as="geometry" />
        </mxCell>
        <mxCell id="Jn_xSeAASxIxrFzxwbmW-15" value="天气预警信息" style="rounded=0;whiteSpace=wrap;html=1;" parent="1" vertex="1">
          <mxGeometry x="335" y="150" width="120" height="60" as="geometry" />
        </mxCell>
        <mxCell id="Jn_xSeAASxIxrFzxwbmW-39" style="edgeStyle=orthogonalEdgeStyle;rounded=0;orthogonalLoop=1;jettySize=auto;html=1;" parent="1" source="Jn_xSeAASxIxrFzxwbmW-17" target="Jn_xSeAASxIxrFzxwbmW-37" edge="1">
          <mxGeometry relative="1" as="geometry" />
        </mxCell>
        <mxCell id="Jn_xSeAASxIxrFzxwbmW-40" style="edgeStyle=orthogonalEdgeStyle;rounded=0;orthogonalLoop=1;jettySize=auto;html=1;" parent="1" source="Jn_xSeAASxIxrFzxwbmW-17" target="Jn_xSeAASxIxrFzxwbmW-34" edge="1">
          <mxGeometry relative="1" as="geometry" />
        </mxCell>
        <mxCell id="Jn_xSeAASxIxrFzxwbmW-41" style="edgeStyle=orthogonalEdgeStyle;rounded=0;orthogonalLoop=1;jettySize=auto;html=1;exitX=0.5;exitY=1;exitDx=0;exitDy=0;" parent="1" source="Jn_xSeAASxIxrFzxwbmW-17" target="Jn_xSeAASxIxrFzxwbmW-38" edge="1">
          <mxGeometry relative="1" as="geometry" />
        </mxCell>
        <mxCell id="Jn_xSeAASxIxrFzxwbmW-17" value="全国天气信息" style="rounded=0;whiteSpace=wrap;html=1;" parent="1" vertex="1">
          <mxGeometry x="560" y="190" width="120" height="60" as="geometry" />
        </mxCell>
        <mxCell id="Jn_xSeAASxIxrFzxwbmW-19" value="AQI中国地图可视化" style="rounded=0;whiteSpace=wrap;html=1;" parent="1" vertex="1">
          <mxGeometry x="30" y="320" width="90" height="30" as="geometry" />
        </mxCell>
        <mxCell id="Jn_xSeAASxIxrFzxwbmW-21" value="AQI空气质量最差10个城市" style="rounded=0;whiteSpace=wrap;html=1;" parent="1" vertex="1">
          <mxGeometry x="125" y="320" width="90" height="30" as="geometry" />
        </mxCell>
        <mxCell id="Jn_xSeAASxIxrFzxwbmW-26" value="AQI空气质量最优10个城市" style="rounded=0;whiteSpace=wrap;html=1;" parent="1" vertex="1">
          <mxGeometry x="230" y="320" width="90" height="30" as="geometry" />
        </mxCell>
        <mxCell id="Jn_xSeAASxIxrFzxwbmW-33" style="edgeStyle=orthogonalEdgeStyle;rounded=0;orthogonalLoop=1;jettySize=auto;html=1;exitX=0.5;exitY=1;exitDx=0;exitDy=0;entryX=0.5;entryY=0;entryDx=0;entryDy=0;" parent="1" source="Jn_xSeAASxIxrFzxwbmW-29" target="Jn_xSeAASxIxrFzxwbmW-32" edge="1">
          <mxGeometry relative="1" as="geometry" />
        </mxCell>
        <mxCell id="Jn_xSeAASxIxrFzxwbmW-29" value="全国各地天气预警信息" style="rounded=0;whiteSpace=wrap;html=1;" parent="1" vertex="1">
          <mxGeometry x="335" y="240" width="120" height="60" as="geometry" />
        </mxCell>
        <mxCell id="Jn_xSeAASxIxrFzxwbmW-32" value="天气预警详细信息" style="rounded=0;whiteSpace=wrap;html=1;" parent="1" vertex="1">
          <mxGeometry x="335" y="320" width="120" height="60" as="geometry" />
        </mxCell>
        <mxCell id="Jn_xSeAASxIxrFzxwbmW-34" value="当日天气数据" style="rounded=0;whiteSpace=wrap;html=1;" parent="1" vertex="1">
          <mxGeometry x="480" y="300" width="80" height="40" as="geometry" />
        </mxCell>
        <mxCell id="Jn_xSeAASxIxrFzxwbmW-37" value="七天天气数据可视化" style="rounded=0;whiteSpace=wrap;html=1;" parent="1" vertex="1">
          <mxGeometry x="575" y="300" width="90" height="40" as="geometry" />
        </mxCell>
        <mxCell id="Jn_xSeAASxIxrFzxwbmW-38" value="二十个天气生活指数&amp;nbsp;" style="rounded=0;whiteSpace=wrap;html=1;" parent="1" vertex="1">
          <mxGeometry x="680" y="300" width="90" height="40" as="geometry" />
        </mxCell>
        <mxCell id="Jn_xSeAASxIxrFzxwbmW-45" style="edgeStyle=orthogonalEdgeStyle;rounded=0;orthogonalLoop=1;jettySize=auto;html=1;entryX=0;entryY=0.5;entryDx=0;entryDy=0;exitX=0.5;exitY=0;exitDx=0;exitDy=0;" parent="1" source="Jn_xSeAASxIxrFzxwbmW-43" target="Jn_xSeAASxIxrFzxwbmW-2" edge="1">
          <mxGeometry relative="1" as="geometry" />
        </mxCell>
        <mxCell id="Jn_xSeAASxIxrFzxwbmW-43" value="后台进行查询信息" style="rounded=0;whiteSpace=wrap;html=1;" parent="1" vertex="1">
          <mxGeometry x="15" y="-60" width="120" height="60" as="geometry" />
        </mxCell>
        <mxCell id="Jn_xSeAASxIxrFzxwbmW-48" value="&lt;font style=&quot;font-size: 24px&quot;&gt;天气网站开发流程图&lt;/font&gt;" style="text;html=1;strokeColor=none;fillColor=none;align=center;verticalAlign=middle;whiteSpace=wrap;rounded=0;" parent="1" vertex="1">
          <mxGeometry x="290" y="-200" width="220" height="70" as="geometry" />
        </mxCell>
      </root>
    </mxGraphModel>
  </diagram>
  <diagram id="LzYT8M14vItxRpL2BH7o" name="Page-2">
    <mxGraphModel dx="1404" dy="762" grid="0" gridSize="10" guides="1" tooltips="1" connect="1" arrows="1" fold="1" page="0" pageScale="1" pageWidth="827" pageHeight="1169" math="0" shadow="1">
      <root>
        <mxCell id="qvB6LOeO1igA1qOD0P0j-0" />
        <mxCell id="qvB6LOeO1igA1qOD0P0j-1" parent="qvB6LOeO1igA1qOD0P0j-0" />
        <mxCell id="AnAtsoeywB2Cz6h_4XV4-0" style="edgeStyle=orthogonalEdgeStyle;rounded=0;orthogonalLoop=1;jettySize=auto;html=1;exitX=0.5;exitY=1;exitDx=0;exitDy=0;fontStyle=1" edge="1" parent="qvB6LOeO1igA1qOD0P0j-1" source="qvB6LOeO1igA1qOD0P0j-2" target="qvB6LOeO1igA1qOD0P0j-3">
          <mxGeometry relative="1" as="geometry" />
        </mxCell>
        <mxCell id="AnAtsoeywB2Cz6h_4XV4-1" style="edgeStyle=orthogonalEdgeStyle;rounded=0;orthogonalLoop=1;jettySize=auto;html=1;exitX=0.5;exitY=1;exitDx=0;exitDy=0;fontStyle=1" edge="1" parent="qvB6LOeO1igA1qOD0P0j-1" source="qvB6LOeO1igA1qOD0P0j-2" target="qvB6LOeO1igA1qOD0P0j-4">
          <mxGeometry relative="1" as="geometry" />
        </mxCell>
        <mxCell id="qvB6LOeO1igA1qOD0P0j-2" value="基于网络掉的城市天气服务系统" style="rounded=0;whiteSpace=wrap;html=1;direction=east;glass=0;fontStyle=1" parent="qvB6LOeO1igA1qOD0P0j-1" vertex="1">
          <mxGeometry x="364" y="83" width="180" height="60" as="geometry" />
        </mxCell>
        <mxCell id="AnAtsoeywB2Cz6h_4XV4-11" style="edgeStyle=orthogonalEdgeStyle;rounded=0;orthogonalLoop=1;jettySize=auto;html=1;exitX=0.5;exitY=1;exitDx=0;exitDy=0;entryX=0.5;entryY=0;entryDx=0;entryDy=0;fontStyle=1" edge="1" parent="qvB6LOeO1igA1qOD0P0j-1" source="qvB6LOeO1igA1qOD0P0j-3" target="AnAtsoeywB2Cz6h_4XV4-3">
          <mxGeometry relative="1" as="geometry" />
        </mxCell>
        <mxCell id="AnAtsoeywB2Cz6h_4XV4-12" style="edgeStyle=orthogonalEdgeStyle;rounded=0;orthogonalLoop=1;jettySize=auto;html=1;exitX=0.5;exitY=1;exitDx=0;exitDy=0;fontStyle=1" edge="1" parent="qvB6LOeO1igA1qOD0P0j-1" source="qvB6LOeO1igA1qOD0P0j-3" target="AnAtsoeywB2Cz6h_4XV4-4">
          <mxGeometry relative="1" as="geometry" />
        </mxCell>
        <mxCell id="AnAtsoeywB2Cz6h_4XV4-13" style="edgeStyle=orthogonalEdgeStyle;rounded=0;orthogonalLoop=1;jettySize=auto;html=1;exitX=0.5;exitY=1;exitDx=0;exitDy=0;fontStyle=1" edge="1" parent="qvB6LOeO1igA1qOD0P0j-1" source="qvB6LOeO1igA1qOD0P0j-3" target="AnAtsoeywB2Cz6h_4XV4-5">
          <mxGeometry relative="1" as="geometry" />
        </mxCell>
        <mxCell id="AnAtsoeywB2Cz6h_4XV4-14" style="edgeStyle=orthogonalEdgeStyle;rounded=0;orthogonalLoop=1;jettySize=auto;html=1;exitX=0.5;exitY=1;exitDx=0;exitDy=0;fontStyle=1" edge="1" parent="qvB6LOeO1igA1qOD0P0j-1" source="qvB6LOeO1igA1qOD0P0j-3" target="AnAtsoeywB2Cz6h_4XV4-9">
          <mxGeometry relative="1" as="geometry" />
        </mxCell>
        <mxCell id="qvB6LOeO1igA1qOD0P0j-3" value="前端" style="rounded=0;whiteSpace=wrap;html=1;direction=east;fontStyle=1" parent="qvB6LOeO1igA1qOD0P0j-1" vertex="1">
          <mxGeometry x="254" y="213" width="120" height="60" as="geometry" />
        </mxCell>
        <mxCell id="AnAtsoeywB2Cz6h_4XV4-17" style="edgeStyle=orthogonalEdgeStyle;rounded=0;orthogonalLoop=1;jettySize=auto;html=1;exitX=0.5;exitY=1;exitDx=0;exitDy=0;fontStyle=1" edge="1" parent="qvB6LOeO1igA1qOD0P0j-1" source="qvB6LOeO1igA1qOD0P0j-4" target="AnAtsoeywB2Cz6h_4XV4-7">
          <mxGeometry relative="1" as="geometry" />
        </mxCell>
        <mxCell id="AnAtsoeywB2Cz6h_4XV4-58" style="edgeStyle=orthogonalEdgeStyle;rounded=0;orthogonalLoop=1;jettySize=auto;html=1;exitX=0.5;exitY=1;exitDx=0;exitDy=0;entryX=0.5;entryY=0;entryDx=0;entryDy=0;fontStyle=1" edge="1" parent="qvB6LOeO1igA1qOD0P0j-1" source="qvB6LOeO1igA1qOD0P0j-4" target="AnAtsoeywB2Cz6h_4XV4-6">
          <mxGeometry relative="1" as="geometry" />
        </mxCell>
        <mxCell id="qvB6LOeO1igA1qOD0P0j-4" value="服务端" style="rounded=0;whiteSpace=wrap;html=1;direction=east;fontStyle=1" parent="qvB6LOeO1igA1qOD0P0j-1" vertex="1">
          <mxGeometry x="508" y="213" width="120" height="60" as="geometry" />
        </mxCell>
        <mxCell id="AnAtsoeywB2Cz6h_4XV4-34" style="edgeStyle=orthogonalEdgeStyle;rounded=0;orthogonalLoop=1;jettySize=auto;html=1;exitX=0;exitY=0.5;exitDx=0;exitDy=0;entryX=0;entryY=0.5;entryDx=0;entryDy=0;fontStyle=1" edge="1" parent="qvB6LOeO1igA1qOD0P0j-1" source="AnAtsoeywB2Cz6h_4XV4-3" target="AnAtsoeywB2Cz6h_4XV4-19">
          <mxGeometry relative="1" as="geometry" />
        </mxCell>
        <mxCell id="AnAtsoeywB2Cz6h_4XV4-35" style="edgeStyle=orthogonalEdgeStyle;rounded=0;orthogonalLoop=1;jettySize=auto;html=1;exitX=0;exitY=0.5;exitDx=0;exitDy=0;entryX=0;entryY=0.5;entryDx=0;entryDy=0;fontStyle=1" edge="1" parent="qvB6LOeO1igA1qOD0P0j-1" source="AnAtsoeywB2Cz6h_4XV4-3" target="AnAtsoeywB2Cz6h_4XV4-20">
          <mxGeometry relative="1" as="geometry" />
        </mxCell>
        <mxCell id="AnAtsoeywB2Cz6h_4XV4-36" style="edgeStyle=orthogonalEdgeStyle;rounded=0;orthogonalLoop=1;jettySize=auto;html=1;exitX=0;exitY=0.5;exitDx=0;exitDy=0;entryX=0;entryY=0.5;entryDx=0;entryDy=0;fontStyle=1" edge="1" parent="qvB6LOeO1igA1qOD0P0j-1" source="AnAtsoeywB2Cz6h_4XV4-3" target="AnAtsoeywB2Cz6h_4XV4-22">
          <mxGeometry relative="1" as="geometry" />
        </mxCell>
        <mxCell id="AnAtsoeywB2Cz6h_4XV4-3" value="当前城市信息展示" style="rounded=0;whiteSpace=wrap;html=1;direction=east;fontStyle=1" vertex="1" parent="qvB6LOeO1igA1qOD0P0j-1">
          <mxGeometry x="64" y="323" width="80" height="40" as="geometry" />
        </mxCell>
        <mxCell id="AnAtsoeywB2Cz6h_4XV4-37" style="edgeStyle=orthogonalEdgeStyle;rounded=0;orthogonalLoop=1;jettySize=auto;html=1;exitX=0;exitY=0.5;exitDx=0;exitDy=0;entryX=0;entryY=0.5;entryDx=0;entryDy=0;fontStyle=1" edge="1" parent="qvB6LOeO1igA1qOD0P0j-1" source="AnAtsoeywB2Cz6h_4XV4-4" target="AnAtsoeywB2Cz6h_4XV4-27">
          <mxGeometry relative="1" as="geometry" />
        </mxCell>
        <mxCell id="AnAtsoeywB2Cz6h_4XV4-39" style="edgeStyle=orthogonalEdgeStyle;rounded=0;orthogonalLoop=1;jettySize=auto;html=1;exitX=0;exitY=0.5;exitDx=0;exitDy=0;entryX=0;entryY=0.5;entryDx=0;entryDy=0;fontStyle=1" edge="1" parent="qvB6LOeO1igA1qOD0P0j-1" source="AnAtsoeywB2Cz6h_4XV4-4" target="AnAtsoeywB2Cz6h_4XV4-38">
          <mxGeometry relative="1" as="geometry" />
        </mxCell>
        <mxCell id="AnAtsoeywB2Cz6h_4XV4-4" value="天气预警" style="rounded=0;whiteSpace=wrap;html=1;direction=east;fontStyle=1" vertex="1" parent="qvB6LOeO1igA1qOD0P0j-1">
          <mxGeometry x="174" y="323" width="80" height="40" as="geometry" />
        </mxCell>
        <mxCell id="AnAtsoeywB2Cz6h_4XV4-40" style="edgeStyle=orthogonalEdgeStyle;rounded=0;orthogonalLoop=1;jettySize=auto;html=1;exitX=0;exitY=0.5;exitDx=0;exitDy=0;entryX=0;entryY=0.5;entryDx=0;entryDy=0;fontStyle=1" edge="1" parent="qvB6LOeO1igA1qOD0P0j-1" source="AnAtsoeywB2Cz6h_4XV4-5" target="AnAtsoeywB2Cz6h_4XV4-26">
          <mxGeometry relative="1" as="geometry" />
        </mxCell>
        <mxCell id="AnAtsoeywB2Cz6h_4XV4-41" style="edgeStyle=orthogonalEdgeStyle;rounded=0;orthogonalLoop=1;jettySize=auto;html=1;entryX=0;entryY=0.5;entryDx=0;entryDy=0;exitX=0;exitY=0.5;exitDx=0;exitDy=0;fontStyle=1" edge="1" parent="qvB6LOeO1igA1qOD0P0j-1" source="AnAtsoeywB2Cz6h_4XV4-5" target="AnAtsoeywB2Cz6h_4XV4-25">
          <mxGeometry relative="1" as="geometry" />
        </mxCell>
        <mxCell id="AnAtsoeywB2Cz6h_4XV4-5" value="AQI数据可视化" style="rounded=0;whiteSpace=wrap;html=1;direction=east;fontStyle=1" vertex="1" parent="qvB6LOeO1igA1qOD0P0j-1">
          <mxGeometry x="284" y="323" width="80" height="40" as="geometry" />
        </mxCell>
        <mxCell id="AnAtsoeywB2Cz6h_4XV4-45" style="edgeStyle=orthogonalEdgeStyle;rounded=0;orthogonalLoop=1;jettySize=auto;html=1;exitX=0;exitY=0.5;exitDx=0;exitDy=0;entryX=0;entryY=0.5;entryDx=0;entryDy=0;fontStyle=1" edge="1" parent="qvB6LOeO1igA1qOD0P0j-1" source="AnAtsoeywB2Cz6h_4XV4-6" target="AnAtsoeywB2Cz6h_4XV4-44">
          <mxGeometry relative="1" as="geometry" />
        </mxCell>
        <mxCell id="AnAtsoeywB2Cz6h_4XV4-46" style="edgeStyle=orthogonalEdgeStyle;rounded=0;orthogonalLoop=1;jettySize=auto;html=1;entryX=0;entryY=0.5;entryDx=0;entryDy=0;exitX=0;exitY=0.5;exitDx=0;exitDy=0;fontStyle=1" edge="1" parent="qvB6LOeO1igA1qOD0P0j-1" source="AnAtsoeywB2Cz6h_4XV4-6" target="AnAtsoeywB2Cz6h_4XV4-24">
          <mxGeometry relative="1" as="geometry" />
        </mxCell>
        <mxCell id="AnAtsoeywB2Cz6h_4XV4-50" style="edgeStyle=orthogonalEdgeStyle;rounded=0;orthogonalLoop=1;jettySize=auto;html=1;exitX=0;exitY=0.5;exitDx=0;exitDy=0;entryX=0;entryY=0.5;entryDx=0;entryDy=0;fontStyle=1" edge="1" parent="qvB6LOeO1igA1qOD0P0j-1" source="AnAtsoeywB2Cz6h_4XV4-6" target="AnAtsoeywB2Cz6h_4XV4-49">
          <mxGeometry relative="1" as="geometry" />
        </mxCell>
        <mxCell id="AnAtsoeywB2Cz6h_4XV4-51" style="edgeStyle=orthogonalEdgeStyle;rounded=0;orthogonalLoop=1;jettySize=auto;html=1;entryX=0;entryY=0.5;entryDx=0;entryDy=0;exitX=0;exitY=0.5;exitDx=0;exitDy=0;fontStyle=1" edge="1" parent="qvB6LOeO1igA1qOD0P0j-1" source="AnAtsoeywB2Cz6h_4XV4-6" target="AnAtsoeywB2Cz6h_4XV4-48">
          <mxGeometry relative="1" as="geometry" />
        </mxCell>
        <mxCell id="AnAtsoeywB2Cz6h_4XV4-6" value="城市信息管理平台" style="rounded=0;whiteSpace=wrap;html=1;direction=east;fontStyle=1" vertex="1" parent="qvB6LOeO1igA1qOD0P0j-1">
          <mxGeometry x="500" y="323" width="80" height="40" as="geometry" />
        </mxCell>
        <mxCell id="AnAtsoeywB2Cz6h_4XV4-54" style="edgeStyle=orthogonalEdgeStyle;rounded=0;orthogonalLoop=1;jettySize=auto;html=1;exitX=0;exitY=0.5;exitDx=0;exitDy=0;entryX=0;entryY=0.5;entryDx=0;entryDy=0;fontStyle=1" edge="1" parent="qvB6LOeO1igA1qOD0P0j-1" source="AnAtsoeywB2Cz6h_4XV4-7" target="AnAtsoeywB2Cz6h_4XV4-47">
          <mxGeometry relative="1" as="geometry" />
        </mxCell>
        <mxCell id="AnAtsoeywB2Cz6h_4XV4-55" style="edgeStyle=orthogonalEdgeStyle;rounded=0;orthogonalLoop=1;jettySize=auto;html=1;exitX=0;exitY=0.5;exitDx=0;exitDy=0;entryX=0;entryY=0.5;entryDx=0;entryDy=0;fontStyle=1" edge="1" parent="qvB6LOeO1igA1qOD0P0j-1" source="AnAtsoeywB2Cz6h_4XV4-7" target="AnAtsoeywB2Cz6h_4XV4-43">
          <mxGeometry relative="1" as="geometry" />
        </mxCell>
        <mxCell id="AnAtsoeywB2Cz6h_4XV4-56" style="edgeStyle=orthogonalEdgeStyle;rounded=0;orthogonalLoop=1;jettySize=auto;html=1;exitX=0;exitY=0.5;exitDx=0;exitDy=0;entryX=0;entryY=0.5;entryDx=0;entryDy=0;fontStyle=1" edge="1" parent="qvB6LOeO1igA1qOD0P0j-1" source="AnAtsoeywB2Cz6h_4XV4-7" target="AnAtsoeywB2Cz6h_4XV4-52">
          <mxGeometry relative="1" as="geometry" />
        </mxCell>
        <mxCell id="AnAtsoeywB2Cz6h_4XV4-7" value="后台用户信息管理" style="rounded=0;whiteSpace=wrap;html=1;direction=east;fontStyle=1" vertex="1" parent="qvB6LOeO1igA1qOD0P0j-1">
          <mxGeometry x="643" y="323" width="80" height="40" as="geometry" />
        </mxCell>
        <mxCell id="AnAtsoeywB2Cz6h_4XV4-42" style="edgeStyle=orthogonalEdgeStyle;rounded=0;orthogonalLoop=1;jettySize=auto;html=1;entryX=0;entryY=0.5;entryDx=0;entryDy=0;exitX=0;exitY=0.5;exitDx=0;exitDy=0;fontStyle=1" edge="1" parent="qvB6LOeO1igA1qOD0P0j-1" source="AnAtsoeywB2Cz6h_4XV4-9" target="AnAtsoeywB2Cz6h_4XV4-23">
          <mxGeometry relative="1" as="geometry" />
        </mxCell>
        <mxCell id="AnAtsoeywB2Cz6h_4XV4-9" value="全国天气" style="rounded=0;whiteSpace=wrap;html=1;direction=east;fontStyle=1" vertex="1" parent="qvB6LOeO1igA1qOD0P0j-1">
          <mxGeometry x="394" y="323" width="80" height="40" as="geometry" />
        </mxCell>
        <mxCell id="AnAtsoeywB2Cz6h_4XV4-19" value="AQI数值提醒" style="rounded=0;whiteSpace=wrap;html=1;glass=0;fontStyle=1" vertex="1" parent="qvB6LOeO1igA1qOD0P0j-1">
          <mxGeometry x="64" y="373" width="80" height="40" as="geometry" />
        </mxCell>
        <mxCell id="AnAtsoeywB2Cz6h_4XV4-20" value="当日天气" style="rounded=0;whiteSpace=wrap;html=1;glass=0;fontStyle=1" vertex="1" parent="qvB6LOeO1igA1qOD0P0j-1">
          <mxGeometry x="64" y="433" width="80" height="40" as="geometry" />
        </mxCell>
        <mxCell id="AnAtsoeywB2Cz6h_4XV4-22" value="十九个生活指数显示" style="rounded=0;whiteSpace=wrap;html=1;glass=0;fontStyle=1" vertex="1" parent="qvB6LOeO1igA1qOD0P0j-1">
          <mxGeometry x="64" y="493" width="80" height="40" as="geometry" />
        </mxCell>
        <mxCell id="AnAtsoeywB2Cz6h_4XV4-23" value="所有天气数据显示" style="rounded=0;whiteSpace=wrap;html=1;glass=0;fontStyle=1" vertex="1" parent="qvB6LOeO1igA1qOD0P0j-1">
          <mxGeometry x="394" y="373" width="80" height="40" as="geometry" />
        </mxCell>
        <mxCell id="AnAtsoeywB2Cz6h_4XV4-24" value="增加城市信息" style="rounded=0;whiteSpace=wrap;html=1;glass=0;fontStyle=1" vertex="1" parent="qvB6LOeO1igA1qOD0P0j-1">
          <mxGeometry x="500" y="428" width="80" height="40" as="geometry" />
        </mxCell>
        <mxCell id="AnAtsoeywB2Cz6h_4XV4-25" value="天气地图可视化" style="rounded=0;whiteSpace=wrap;html=1;glass=0;fontStyle=1" vertex="1" parent="qvB6LOeO1igA1qOD0P0j-1">
          <mxGeometry x="284" y="433" width="80" height="40" as="geometry" />
        </mxCell>
        <mxCell id="AnAtsoeywB2Cz6h_4XV4-26" value="空气质量城市最优与最差排行榜" style="rounded=0;whiteSpace=wrap;html=1;glass=0;fontStyle=1" vertex="1" parent="qvB6LOeO1igA1qOD0P0j-1">
          <mxGeometry x="284" y="373" width="80" height="40" as="geometry" />
        </mxCell>
        <mxCell id="AnAtsoeywB2Cz6h_4XV4-27" value="天气预警列表页展示&amp;nbsp;" style="rounded=0;whiteSpace=wrap;html=1;glass=0;fontStyle=1" vertex="1" parent="qvB6LOeO1igA1qOD0P0j-1">
          <mxGeometry x="174" y="373" width="80" height="40" as="geometry" />
        </mxCell>
        <mxCell id="AnAtsoeywB2Cz6h_4XV4-38" value="天气详细页面展示" style="rounded=0;whiteSpace=wrap;html=1;glass=0;fontStyle=1" vertex="1" parent="qvB6LOeO1igA1qOD0P0j-1">
          <mxGeometry x="174" y="433" width="80" height="40" as="geometry" />
        </mxCell>
        <mxCell id="AnAtsoeywB2Cz6h_4XV4-43" value="增加用户信息" style="rounded=0;whiteSpace=wrap;html=1;glass=0;fontStyle=1" vertex="1" parent="qvB6LOeO1igA1qOD0P0j-1">
          <mxGeometry x="643" y="433" width="80" height="40" as="geometry" />
        </mxCell>
        <mxCell id="AnAtsoeywB2Cz6h_4XV4-44" value="删除城市信息" style="rounded=0;whiteSpace=wrap;html=1;glass=0;fontStyle=1" vertex="1" parent="qvB6LOeO1igA1qOD0P0j-1">
          <mxGeometry x="500" y="373" width="80" height="40" as="geometry" />
        </mxCell>
        <mxCell id="AnAtsoeywB2Cz6h_4XV4-47" value="删除用户信息" style="rounded=0;whiteSpace=wrap;html=1;glass=0;fontStyle=1" vertex="1" parent="qvB6LOeO1igA1qOD0P0j-1">
          <mxGeometry x="643" y="373" width="80" height="40" as="geometry" />
        </mxCell>
        <mxCell id="AnAtsoeywB2Cz6h_4XV4-48" value="查询城市信息" style="rounded=0;whiteSpace=wrap;html=1;glass=0;fontStyle=1" vertex="1" parent="qvB6LOeO1igA1qOD0P0j-1">
          <mxGeometry x="500" y="548" width="80" height="40" as="geometry" />
        </mxCell>
        <mxCell id="AnAtsoeywB2Cz6h_4XV4-49" value="修改城市信息" style="rounded=0;whiteSpace=wrap;html=1;glass=0;fontStyle=1" vertex="1" parent="qvB6LOeO1igA1qOD0P0j-1">
          <mxGeometry x="500" y="488" width="80" height="40" as="geometry" />
        </mxCell>
        <mxCell id="AnAtsoeywB2Cz6h_4XV4-52" value="修改用户信息" style="rounded=0;whiteSpace=wrap;html=1;glass=0;fontStyle=1" vertex="1" parent="qvB6LOeO1igA1qOD0P0j-1">
          <mxGeometry x="643" y="493" width="80" height="40" as="geometry" />
        </mxCell>
      </root>
    </mxGraphModel>
  </diagram>
</mxfile>
